<svg width="36" height="35" viewBox="0 0 36 35" fill="none" xmlns="http://www.w3.org/2000/svg">
<path fill-rule="evenodd" clip-rule="evenodd" d="M25 15.0001C25 20.523 20.5228 25.0001 15 25.0001C9.47715 25.0001 5 20.523 5 15.0001C5 9.47727 9.47715 5.00012 15 5.00012C20.5228 5.00012 25 9.47727 25 15.0001ZM23.4001 26.201C21.0603 27.9586 18.1518 29.0001 15 29.0001C7.26801 29.0001 1 22.7321 1 15.0001C1 7.26814 7.26801 1.00012 15 1.00012C22.732 1.00012 29 7.26814 29 15.0001C29 18.152 27.9584 21.0607 26.2007 23.4006C26.2403 23.4304 26.2791 23.4619 26.317 23.4951L34.317 30.4951C35.1483 31.2224 35.2325 32.4859 34.5052 33.3172C33.7778 34.1485 32.5143 34.2327 31.683 33.5054L23.683 26.5054C23.5764 26.4121 23.4821 26.3099 23.4001 26.201Z" fill="#301934"/>
<path d="M23.4001 26.201L23.7997 25.9005C23.6338 25.6799 23.3205 25.6355 23.0998 25.8013L23.4001 26.201ZM26.2007 23.4006L25.8009 23.1003C25.6351 23.321 25.6795 23.6342 25.9001 23.8002L26.2007 23.4006ZM26.317 23.4951L25.9878 23.8714L25.9878 23.8714L26.317 23.4951ZM34.317 30.4951L34.6463 30.1188L34.6463 30.1188L34.317 30.4951ZM34.5052 33.3172L34.8815 33.6465L34.8815 33.6465L34.5052 33.3172ZM31.683 33.5054L31.3538 33.8817L31.3538 33.8817L31.683 33.5054ZM23.683 26.5054L23.3538 26.8817L23.3538 26.8817L23.683 26.5054ZM15 25.5001C20.799 25.5001 25.5 20.7991 25.5 15.0001H24.5C24.5 20.2468 20.2467 24.5001 15 24.5001V25.5001ZM4.5 15.0001C4.5 20.7991 9.20101 25.5001 15 25.5001V24.5001C9.7533 24.5001 5.5 20.2468 5.5 15.0001H4.5ZM15 4.50012C9.20101 4.50012 4.5 9.20113 4.5 15.0001H5.5C5.5 9.75342 9.7533 5.50012 15 5.50012V4.50012ZM25.5 15.0001C25.5 9.20113 20.799 4.50012 15 4.50012V5.50012C20.2467 5.50012 24.5 9.75342 24.5 15.0001H25.5ZM15 29.5001C18.2637 29.5001 21.2769 28.4212 23.7004 26.6008L23.0998 25.8013C20.8436 27.496 18.0398 28.5001 15 28.5001V29.5001ZM0.5 15.0001C0.5 23.0082 6.99187 29.5001 15 29.5001V28.5001C7.54416 28.5001 1.5 22.456 1.5 15.0001H0.5ZM15 0.500122C6.99187 0.500122 0.5 6.99199 0.5 15.0001H1.5C1.5 7.54428 7.54416 1.50012 15 1.50012V0.500122ZM29.5 15.0001C29.5 6.99199 23.0081 0.500122 15 0.500122V1.50012C22.4558 1.50012 28.5 7.54428 28.5 15.0001H29.5ZM26.6004 23.7009C28.421 21.2773 29.5 18.264 29.5 15.0001H28.5C28.5 18.04 27.4958 20.844 25.8009 23.1003L26.6004 23.7009ZM25.9001 23.8002C25.9299 23.8226 25.9592 23.8463 25.9878 23.8714L26.6463 23.1188C26.5991 23.0775 26.5507 23.0382 26.5012 23.001L25.9001 23.8002ZM25.9878 23.8714L33.9878 30.8713L34.6463 30.1188L26.6463 23.1188L25.9878 23.8714ZM33.9878 30.8713C34.6112 31.4169 34.6744 32.3645 34.1289 32.988L34.8815 33.6465C35.7907 32.6074 35.6854 31.028 34.6463 30.1188L33.9878 30.8713ZM34.1289 32.988C33.5834 33.6114 32.6357 33.6746 32.0123 33.1291L31.3538 33.8817C32.3929 34.7909 33.9723 34.6856 34.8815 33.6465L34.1289 32.988ZM32.0123 33.1291L24.0123 26.1291L23.3538 26.8817L31.3538 33.8817L32.0123 33.1291ZM24.0123 26.1291C23.9318 26.0587 23.861 25.982 23.7997 25.9005L23.0006 26.5016C23.1031 26.6379 23.221 26.7655 23.3538 26.8817L24.0123 26.1291Z" fill="black"/>
</svg>
